<svg version="1.1" xmlns="http://www.w3.org/2000/svg" viewBox="0 0 600 480" width="600" height="480">
  <defs>
    <style>
      @font-face {font-family: "Verdana";}
    </style>
  </defs>
<g stroke-linecap="round" transform="translate(10 10) rotate(0 290 230)">
<path d="M115 0 M115 0 C192.47 -2.77, 268.01 -3.31, 465 0 M115 0 C186.21 4.31, 257.66 3.3, 465 0 M465 0 C543.77 -2.27, 576.7 39.28, 580 115 M465 0 C537.88 2.4, 578.97 42.31, 580 115 M580 115 C578.28 175.52, 581.92 233.61, 580 345 M580 115 C582.12 173.88, 583.07 236.31, 580 345 M580 345 C582.09 421.77, 544.15 463.05, 465 460 M580 345 C578.03 419.37, 542.74 461.83, 465 460 M465 460 C379.92 456.89, 299.09 459.44, 115 460 M465 460 C355.39 457.33, 244.62 457.89, 115 460 M115 460 C39.69 457.17, -0.56 419.98, 0 345 M115 460 C37.3 457.28, -2.67 420.09, 0 345 M0 345 C-0.81 259.44, -3.24 172.32, 0 115 M0 345 C-3.69 283.8, -2.13 224.58, 0 115 M0 115 C0.08 34.89, 36.13 -0.95, 115 0 M0 115 C2.18 42.4, 37.33 -3.66, 115 0" stroke="#e67700" stroke-width="2" fill="none">
</path>
</g>
<g stroke-linecap="round">
<g transform="translate(192.50786815136678 72.21498642474413) rotate(0 -49.94372885413469 59.937914466708904)">
<path d="M2.27 1.58 C-14.34 21.31, -82.65 97.96, -99.95 117.59 M0.06 -0.04 C-16.89 20.04, -84.78 99.56, -102.16 119.91" stroke="#e67700" stroke-width="2" fill="none">
</path>
</g>
</g>
<g stroke-linecap="round">
<g transform="translate(494.1606371589005 71.26774908825755) rotate(0 -47.441010914891876 60.78025682784617)">
<path d="M-0.81 1.16 C-17.33 21.25, -81.38 102.65, -97.79 122.24 M3.94 -0.68 C-12.87 18.51, -81.4 98.15, -98.82 118.44" stroke="#e67700" stroke-width="2" fill="none">
</path>
</g>
</g>
<g stroke-linecap="round">
<g transform="translate(90 70) rotate(0 51.27302098281683 60.324849051982156)">
<path d="M2 0.19 C18.58 20.35, 81.2 102.51, 97.85 122.83 M-0.35 -2.18 C17.21 16.92, 86.01 96.95, 102.9 118.17" stroke="#e67700" stroke-width="2" fill="none">
</path>
</g>
</g>
<g stroke-linecap="round"><g transform="translate(391.65276900753383 69.05276266351342) rotate(0 50.4682088784873 61.950773462802175)">
<path d="M1.16 2.21 C17.98 22.84, 86.28 103.15, 102.59 122.95 M-1.65 0.95 C14.84 20.76, 85.21 97.93, 101.57 118.37" stroke="#e67700" stroke-width="2" fill="none">
</path>
</g>
</g>
<g transform="translate(170 330) rotate(0 138 21.5)">
<text x="138" y="35" font-family="Verdana" font-size="36px" fill="#e67700" text-anchor="middle" style="white-space: pre;" direction="ltr">404 - Not found
</text>
</g>
</svg>